<?xml version="1.0" encoding="iso-8859-1"?>
<!-- Uploaded to: SVG Repo, www.svgrepo.com, Generator: SVG Repo Mixer Tools -->
<svg height="800px" width="800px" version="1.1" id="Layer_1" xmlns="http://www.w3.org/2000/svg" xmlns:xlink="http://www.w3.org/1999/xlink" 
	 viewBox="0 0 512 512" xml:space="preserve">
<path style="fill:#93C7EF;" d="M256,0C114.842,0,0,114.842,0,256s114.842,256,256,256s256-114.842,256-256S397.158,0,256,0z"/>
<path style="fill:#78B9EB;" d="M256,512c141.158,0,256-114.842,256-256S397.158,0,256,0"/>
<g>
	<path style="fill:#FFFFFF;" d="M137.668,196.875L96.702,314.637h34.99l6.818-22.565h28.834l6.982,22.565h34.819l-40.801-117.761
		L137.668,196.875L137.668,196.875z M161.577,268.468h-17.609l9.009-30.027L161.577,268.468z"/>
	<path style="fill:#FFFFFF;" d="M298.149,253.76c-3.113-2.721-6.902-5.109-11.264-7.096c-4.301-1.959-9.186-3.781-14.501-5.41
		c-3.372-1.085-6.416-2.018-9.05-2.772c-2.571-0.733-4.783-1.505-6.576-2.295c-1.691-0.746-2.982-1.56-3.841-2.42
		c-0.737-0.736-1.095-1.667-1.095-2.85c0-1.585,0.586-2.625,1.839-3.273c1.491-0.768,3.565-1.159,6.165-1.159
		c3.317,0,6.77,0.553,10.261,1.646c3.559,1.116,6.818,2.328,9.693,3.605c3.417,1.496,6.756,3.219,9.924,5.123l1.136,0.682
		l14.838-28.437l-1.136-0.568c-2.592-1.296-5.557-2.696-8.813-4.161c-3.268-1.471-6.831-2.851-10.588-4.103
		c-3.766-1.255-7.72-2.307-11.754-3.126c-4.065-0.823-8.299-1.241-12.586-1.241c-5.842,0-11.461,0.867-16.702,2.577
		c-5.267,1.72-10.016,4.278-14.117,7.604c-4.132,3.349-7.441,7.59-9.838,12.606c-2.396,5.016-3.613,10.878-3.613,17.422
		c0,4.343,0.598,8.251,1.776,11.615c1.19,3.403,3.056,6.474,5.542,9.126c2.46,2.63,5.626,5.006,9.406,7.061
		c3.716,2.026,8.206,3.939,13.342,5.687c3.473,1.195,6.801,2.24,9.889,3.104c3.052,0.859,5.781,1.723,8.108,2.569
		c2.234,0.814,3.992,1.753,5.226,2.787c1.066,0.895,1.585,1.937,1.585,3.183c0,1.1-0.471,1.932-1.484,2.62
		c-0.78,0.531-2.546,1.164-6.522,1.164c-4.404,0-8.791-0.638-13.037-1.897c-4.302-1.275-8.203-2.726-11.616-4.326
		c-4.039-1.805-7.973-3.907-11.695-6.249l-1.174-0.737l-14.756,30.038l0.992,0.589c3.497,2.079,7.352,3.966,11.455,5.606
		c4.084,1.635,8.389,3.069,12.8,4.267c4.391,1.195,8.891,2.133,13.378,2.79c4.472,0.656,8.903,0.988,13.168,0.988
		c5.366,0,10.788-0.641,16.116-1.902c5.372-1.271,10.262-3.379,14.535-6.266c4.313-2.912,7.835-6.857,10.466-11.726
		c2.63-4.871,3.965-10.946,3.965-18.045c0-5.553-0.854-10.361-2.536-14.289C303.767,259.929,301.308,256.528,298.149,253.76z"/>
	<path style="fill:#FFFFFF;" d="M412.284,223.063c-1.998-4.935-4.78-9.376-8.272-13.198c-3.495-3.829-7.745-6.982-12.63-9.372
		c-4.918-2.4-10.345-3.616-16.133-3.616h-50.925v117.761h34.155v-35.39h17.583c5.787,0,11.182-1.16,16.036-3.449
		c4.834-2.277,9.011-5.382,12.415-9.231c3.384-3.826,6.057-8.271,7.943-13.207c1.886-4.936,2.841-10.084,2.841-15.299
		C415.298,233.056,414.284,228.01,412.284,223.063z M358.479,226.971h14.659c1.622,0,3.309,0.768,5.015,2.282
		c1.661,1.48,2.504,4.443,2.504,8.809c0,4.302-0.733,7.264-2.177,8.804c-1.446,1.537-2.927,2.285-4.529,2.285h-15.472
		L358.479,226.971L358.479,226.971z"/>
</g>
</svg>