<?xml version="1.0" encoding="iso-8859-1"?>
<!-- Uploaded to: SVG Repo, www.svgrepo.com, Generator: SVG Repo Mixer Tools -->
<svg height="800px" width="800px" version="1.1" id="Layer_1" xmlns="http://www.w3.org/2000/svg" xmlns:xlink="http://www.w3.org/1999/xlink" 
	 viewBox="0 0 512 512" xml:space="preserve">
<polygon style="fill:#93C7EF;" points="369.182,0 52.513,0 52.513,512 459.487,512 459.487,90.305 "/>
<polygon style="fill:#78B9EB;" points="369.182,0 256,0 256,512 459.487,512 459.487,90.305 "/>
<polygon style="fill:#C9E3F7;" points="369.182,0 369.182,90.585 459.487,90.305 "/>
<g>
	<path style="fill:#FFFFFF;" d="M190.397,263.849c-0.761,2.032-1.805,3.763-3.104,5.145c-1.325,1.407-2.834,2.574-4.49,3.466
		c-1.678,0.903-3.44,1.556-5.237,1.94c-5.27,1.126-10.243,0.624-14.224-1.402c-2.623-1.332-4.868-3.142-6.672-5.375
		c-1.821-2.255-3.228-4.896-4.184-7.852c-0.964-2.974-1.452-6.13-1.452-9.381c0-2.901,0.424-5.864,1.26-8.809
		c0.824-2.911,2.101-5.552,3.791-7.849c1.67-2.27,3.844-4.137,6.46-5.551c3.843-2.081,9.026-2.669,14.849-1.587
		c1.839,0.343,3.648,0.953,5.375,1.813c1.696,0.848,3.27,2.013,4.675,3.462c1.386,1.428,2.519,3.274,3.37,5.486l0.608,1.578
		l22.855-16.261l-0.538-1.016c-3.504-6.627-8.896-12.023-16.024-16.037c-7.108-4-15.602-6.028-25.249-6.028
		c-8.054,0-15.335,1.48-21.641,4.397c-6.281,2.905-11.704,6.758-16.12,11.458c-4.415,4.696-7.822,10.08-10.123,15.999
		c-2.299,5.912-3.466,12.008-3.466,18.122c0,6.388,1.237,12.766,3.676,18.952c2.437,6.189,5.931,11.797,10.383,16.669
		c4.456,4.881,9.83,8.852,15.977,11.809c6.169,2.967,13.063,4.471,20.488,4.471c4.212,0,8.602-0.521,13.047-1.55
		c4.444-1.029,8.673-2.549,12.565-4.517c3.917-1.985,7.456-4.47,10.513-7.391c3.106-2.96,5.459-6.359,6.995-10.1l0.429-1.046
		l-24.237-14.48L190.397,263.849z"/>
	<path style="fill:#FFFFFF;" d="M293.255,248.504c-2.658-2.325-5.897-4.366-9.624-6.065c-3.671-1.671-7.83-3.222-12.339-4.604
		c-2.876-0.927-5.465-1.72-7.694-2.357c-2.164-0.616-4.03-1.268-5.552-1.938c-1.402-0.618-2.475-1.29-3.185-2.001
		c-0.575-0.575-0.855-1.309-0.855-2.242c0-1.258,0.44-2.045,1.426-2.555c1.231-0.635,2.954-0.957,5.119-0.957
		c2.791,0,5.696,0.466,8.636,1.389c3.022,0.947,5.78,1.972,8.205,3.051c2.893,1.268,5.719,2.727,8.398,4.335l1.195,0.717
		l12.841-24.614l-1.195-0.597c-2.236-1.117-4.756-2.308-7.492-3.537c-2.787-1.252-5.821-2.429-9.015-3.495
		c-3.212-1.069-6.581-1.964-10.009-2.66c-3.467-0.702-7.08-1.059-10.739-1.059c-4.985,0-9.782,0.74-14.26,2.202
		c-4.502,1.469-8.561,3.656-12.067,6.5c-3.537,2.87-6.372,6.5-8.422,10.791c-2.052,4.293-3.09,9.307-3.09,14.903
		c0,3.717,0.512,7.063,1.522,9.946c1.021,2.921,2.624,5.557,4.759,7.839c2.108,2.253,4.818,4.288,8.052,6.044
		c3.178,1.73,7.004,3.361,11.366,4.843c2.946,1.014,5.776,1.902,8.411,2.643c2.556,0.718,4.868,1.449,6.867,2.174
		c1.868,0.681,3.336,1.462,4.36,2.324c0.856,0.719,1.255,1.516,1.255,2.509c0,0.853-0.354,1.476-1.147,2.015
		c-0.634,0.431-2.087,0.945-5.397,0.945c-3.715,0-7.416-0.538-11-1.6c-3.64-1.078-6.942-2.308-9.83-3.661
		c-3.417-1.527-6.748-3.307-9.9-5.288l-1.233-0.776l-12.757,25.968l1.041,0.62c2.981,1.771,6.266,3.378,9.763,4.777
		c3.489,1.396,7.156,2.616,10.895,3.631c3.743,1.019,7.575,1.818,11.389,2.376c3.818,0.559,7.592,0.843,11.218,0.843
		c4.573,0,9.198-0.545,13.744-1.621c4.591-1.086,8.771-2.89,12.425-5.358c3.697-2.498,6.714-5.879,8.967-10.044
		c2.254-4.175,3.398-9.371,3.398-15.443c0-4.75-0.733-8.865-2.174-12.233C298.079,253.798,295.969,250.881,293.255,248.504z"/>
	<path style="fill:#FFFFFF;" d="M388.71,257.176c-1.448-3.378-3.556-6.296-6.27-8.673c-2.658-2.325-5.897-4.366-9.624-6.065
		c-3.671-1.671-7.83-3.222-12.339-4.604c-2.876-0.927-5.465-1.72-7.694-2.357c-2.164-0.616-4.03-1.268-5.551-1.938
		c-1.402-0.617-2.475-1.29-3.185-2.001c-0.576-0.575-0.856-1.31-0.856-2.242c0-1.256,0.44-2.045,1.427-2.555
		c1.231-0.635,2.953-0.957,5.117-0.957c2.791,0,5.696,0.466,8.636,1.389c3.022,0.947,5.78,1.972,8.205,3.051
		c2.893,1.268,5.719,2.727,8.398,4.335l1.195,0.717l12.841-24.614l-1.195-0.597c-2.236-1.117-4.756-2.308-7.492-3.537
		c-2.787-1.252-5.821-2.429-9.015-3.495c-3.212-1.069-6.581-1.964-10.009-2.66c-3.467-0.702-7.08-1.059-10.739-1.059
		c-4.986,0-9.783,0.74-14.26,2.202c-4.504,1.47-8.562,3.658-12.066,6.5c-3.538,2.87-6.372,6.5-8.422,10.791
		c-2.052,4.294-3.092,9.308-3.092,14.903c0,3.717,0.512,7.063,1.522,9.946c1.021,2.921,2.623,5.557,4.759,7.839
		c2.108,2.253,4.818,4.288,8.05,6.044c3.177,1.729,7.004,3.361,11.368,4.843c2.937,1.012,5.767,1.9,8.41,2.643
		c2.555,0.718,4.867,1.449,6.867,2.174c1.868,0.681,3.336,1.462,4.36,2.324c0.856,0.719,1.255,1.516,1.255,2.509
		c0,0.853-0.354,1.476-1.147,2.015c-0.634,0.431-2.087,0.945-5.397,0.945c-3.714,0-7.415-0.538-11-1.6
		c-3.644-1.079-6.945-2.309-9.829-3.661c-3.419-1.527-6.749-3.307-9.901-5.288l-1.234-0.776l-12.755,25.968l1.042,0.62
		c2.98,1.771,6.263,3.377,9.765,4.777c3.491,1.396,7.156,2.618,10.894,3.631c3.744,1.019,7.576,1.818,11.39,2.376
		c3.816,0.559,7.591,0.843,11.217,0.843c4.573,0,9.198-0.545,13.744-1.621c4.591-1.086,8.771-2.89,12.425-5.358
		c3.697-2.498,6.714-5.879,8.967-10.044c2.254-4.175,3.398-9.371,3.398-15.443C390.884,264.661,390.153,260.545,388.71,257.176z"/>
</g>
</svg>